<svg xmlns="http://www.w3.org/2000/svg" width="24" height="24" fill="none" viewBox="0 0 90 90"><path fill="url(#paint0_linear_2897_1966)" d="M29.9995 3.01403e-05L0 29.9995L29.9995 59.999L59.999 29.9995L29.9995 3.01403e-05Z"/><path fill="url(#paint1_linear_2897_1966)" d="M60.0005 29.9989L30.001 59.9984L60.0005 89.9979L90 59.9984L60.0005 29.9989Z"/><path fill="url(#paint2_linear_2897_1966)" d="M30.0001 0.000244141L59.999 29.9991L89.9991 0.000244141H30.0001Z"/><path fill="url(#paint3_linear_2897_1966)" d="M30.0001 59.9993L0 89.9982H59.999L30.0001 59.9993Z"/><path fill="url(#paint4_linear_2897_1966)" d="M30.0001 59.9993L0 89.9982H59.999L30.0001 59.9993Z"/><defs><linearGradient id="paint0_linear_2897_1966" x1="44.783" x2="16.472" y1="44.636" y2="16.608" gradientUnits="userSpaceOnUse"><stop stop-color="#3B95C9"/><stop offset="1" stop-color="#59B1E3"/></linearGradient><linearGradient id="paint1_linear_2897_1966" x1="47.129" x2="74.591" y1="46.465" y2="75.342" gradientUnits="userSpaceOnUse"><stop stop-color="#59B1E3"/><stop offset="1" stop-color="#9BD0F0"/></linearGradient><linearGradient id="paint2_linear_2897_1966" x1="84.936" x2="28.793" y1="-6.356" y2="23.666" gradientUnits="userSpaceOnUse"><stop stop-color="#59B1E3"/><stop offset="1" stop-color="#9BD0F0"/></linearGradient><linearGradient id="paint3_linear_2897_1966" x1="61.766" x2="5.632" y1="64.821" y2="98.893" gradientUnits="userSpaceOnUse"><stop stop-color="#59B1E3"/><stop offset="1" stop-color="#9BD0F0"/></linearGradient><linearGradient id="paint4_linear_2897_1966" x1="44.803" x2="28.383" y1="74.94" y2="91.644" gradientUnits="userSpaceOnUse"><stop stop-color="#3B95C9"/><stop offset="1" stop-color="#9BD0F0" stop-opacity="0"/></linearGradient></defs></svg>